<svg xmlns="http://www.w3.org/2000/svg" width="70" height="70" viewBox="0 0 70 70">
  <g id="Group_37568" data-name="Group 37568" transform="translate(0 0)">
    <g id="Group_37517" data-name="Group 37517" transform="translate(14.623 32.519)">
      <path id="Path_39198" data-name="Path 39198" d="M856.836,579.443V577.6a1.187,1.187,0,0,0-.184-.736,1.344,1.344,0,0,0-1.512,0,1.184,1.184,0,0,0-.184.736l.077.756h-2.171a5.4,5.4,0,0,1-.078-.834q0-2.888,3.111-2.888t3.111,2.888v1.919h1.88v-4.71h3.857v1.822h-1.687v11.03h-2.171v-6.3h-1.958v2.481q0,2.714-3.092,2.714t-3.092-2.714v-1.609q0-2.714,3.082-2.714Zm0,4.245v-2.4h-1.008a1.021,1.021,0,0,0-.795.233,1.07,1.07,0,0,0-.194.7v1.473a1.07,1.07,0,0,0,.194.7,1.022,1.022,0,0,0,.795.233,1.088,1.088,0,0,0,.8-.223A1.028,1.028,0,0,0,856.836,583.688Z" transform="translate(-852.746 -570.275)" fill="#598216"/>
      <path id="Path_39199" data-name="Path 39199" d="M984.591,578.667a2.582,2.582,0,0,0-.194-1.066h-5.718v-1.822h9.634V577.6h-1.687a3.739,3.739,0,0,1,.116,1.066v2.287q0,2.869-2.946,2.869a4.458,4.458,0,0,1-1.376-.174v1.783q0,1.338,1.939,1.338a7.134,7.134,0,0,0,2.5-.446v2.016a9.31,9.31,0,0,1-2.908.388,3.914,3.914,0,0,1-2.714-.872,3.021,3.021,0,0,1-.969-2.365v-5.6h2.151v1.861a3.413,3.413,0,0,0,1.085.174q1.085,0,1.086-1.008Z" transform="translate(-967.998 -571.321)" fill="#598216"/>
      <path id="Path_39200" data-name="Path 39200" d="M1065.974,527.67v1.822h-1.686v11.03h-2.171v-11.03h-1.687V527.67h1.648l-1.26-1.841a1.679,1.679,0,0,0-1.415-.795c-.22,0-.388.007-.5.019V523.27a7.221,7.221,0,0,1,1.028-.058,2.931,2.931,0,0,1,2.442,1.551l1.919,2.908Z" transform="translate(-1041.415 -523.212)" fill="#598216"/>
      <path id="Path_39201" data-name="Path 39201" d="M1132.4,578.667a2.582,2.582,0,0,0-.194-1.066h-5.428v-1.822h13.452V577.6h-1.686v11.03h-2.151v-5.273h-2.578a2.95,2.95,0,0,1-2.229.737,6.625,6.625,0,0,1-1.124-.116v1.454q0,1.338,1.938,1.338a6.507,6.507,0,0,0,2.345-.446v2.016a8.719,8.719,0,0,1-2.81.388,3.852,3.852,0,0,1-2.656-.862,3.016,3.016,0,0,1-.969-2.375v-5.6h2.152v2.171a2.918,2.918,0,0,0,.853.136q1.085,0,1.086-1.008Zm3.993,2.83v-3.9h-2.016a3.234,3.234,0,0,1,.136,1.066v2.83Z" transform="translate(-1103.535 -571.321)" fill="#598216"/>
      <path id="Path_39202" data-name="Path 39202" d="M1271.534,577.6h-1.686v-1.822h5.544V577.6H1273.7v11.03h-2.171Z" transform="translate(-1234.471 -571.321)" fill="#598216"/>
    </g>
    <g id="Group_37518" data-name="Group 37518" transform="translate(0 0)">
      <path id="Path_39203" data-name="Path 39203" d="M724.979,215a34.894,34.894,0,1,1,13.624-2.751A34.783,34.783,0,0,1,724.979,215Zm0-67.786A32.786,32.786,0,1,0,757.766,180,32.824,32.824,0,0,0,724.979,147.214Z" transform="translate(-689.979 -145)" fill="#598216"/>
    </g>
    <path id="Rectangle_2162" data-name="Rectangle 2162" d="M14.142,0h0a0,0,0,0,1,0,0V0A14.142,14.142,0,0,1,0,14.142H0a0,0,0,0,1,0,0v0A14.142,14.142,0,0,1,14.142,0Z" transform="translate(58.209 33.17) rotate(-180)" fill="#f26e47"/>
    <path id="Rectangle_2163" data-name="Rectangle 2163" d="M0,0H0A14.142,14.142,0,0,1,14.142,14.142v0a0,0,0,0,1,0,0h0A14.142,14.142,0,0,1,0,0V0A0,0,0,0,1,0,0Z" transform="translate(43.957 13.011) rotate(45)" fill="#7d287e"/>
    <path id="Rectangle_2164" data-name="Rectangle 2164" d="M6.773,0h0a0,0,0,0,1,0,0V0A6.773,6.773,0,0,1,0,6.773H0a0,0,0,0,1,0,0v0A6.773,6.773,0,0,1,6.773,0Z" transform="translate(48.714 28.484) rotate(135)" fill="#f26e47"/>
  </g>
</svg>
